<svg width="239" height="158" viewBox="0 0 239 158" fill="none" xmlns="http://www.w3.org/2000/svg"><path d="M91.08 152.27 35.28 5.4S8.47 16.61.79 25.14c0 0 44.47 15.38 79.8 130.96l10.49-3.83Z" fill="url(#a)"/><path d="m141.73 153.1 63.08-142.62S231.47 22 238.68 30.92c0 0-45.22 13.01-86.68 126.56l-10.27-4.38Z" fill="url(#b)"/><path d="m238.68 30.92-4.87 6.06S192.6 55.65 152 157.47c0 0 33.62-103.57 86.68-126.56Z" fill="url(#c)"/><path d="m.8 25.15 1.97 6.06S45.94 51.33 80.6 156.1c0 0-30.73-111.83-79.8-130.96Z" fill="url(#d)"/><path d="M50.82.21S43.24 3.31 41.38 8c-1.86 4.69 8.75 36.5 8.75 36.5L34.93 6.7S45.45 1.64 50.82.22ZM184.18 2.16s14.01 4.47 14.42 9.7c.4 5.25-13.43 43.02-13.43 43.02s19.79-43.33 19.43-43.93c-1.9-3.17-20.42-8.79-20.42-8.79ZM152 157.48s16.67-62.56 52.92-99.68c0 0-37.55 47.76-52.92 99.68ZM32.95 52.35S64.05 86.13 80.6 156.1c0 0-19.43-63.34-47.64-103.75Z" fill="#FFD148"/><defs><linearGradient id="a" x1="54.86" y1="302.25" x2="42.34" y2="-.78" gradientUnits="userSpaceOnUse"><stop stop-color="#FF8B20"/><stop offset=".21" stop-color="#FFA909"/><stop offset=".34" stop-color="#FFB600"/></linearGradient><linearGradient id="b" x1="198.74" y1="296.3" x2="186.22" y2="-6.73" gradientUnits="userSpaceOnUse"><stop stop-color="#FF8B20"/><stop offset=".21" stop-color="#FFA909"/><stop offset=".34" stop-color="#FFB600"/></linearGradient><linearGradient id="c" x1="195.34" y1="157.48" x2="195.34" y2="30.92" gradientUnits="userSpaceOnUse"><stop stop-color="#FFC625"/><stop offset=".08" stop-color="#FFB91F"/><stop offset=".22" stop-color="#FF9811"/><stop offset=".36" stop-color="#FF7000"/><stop offset=".61" stop-color="#E35000"/><stop offset="1" stop-color="#B31800"/></linearGradient><linearGradient id="d" x1="40.69" y1="156.1" x2="40.69" y2="25.15" gradientUnits="userSpaceOnUse"><stop stop-color="#FFC625"/><stop offset=".08" stop-color="#FFB91F"/><stop offset=".22" stop-color="#FF9811"/><stop offset=".36" stop-color="#FF7000"/><stop offset=".61" stop-color="#E35000"/><stop offset="1" stop-color="#B31800"/></linearGradient></defs></svg>