<svg width="107" height="115" viewBox="0 0 107 115" fill="none" xmlns="http://www.w3.org/2000/svg"><path fill-rule="evenodd" clip-rule="evenodd" d="M106.93 29.74c-.56-6.17-3.24-14.6-6.04-20.18C95.73-.74 60.35 0 53.5 0 46.66.01 11.27-.75 6.1 9.56 3.3 15.16.62 23.54.07 29.74h106.85Z" fill="url(#a)"/><path fill-rule="evenodd" clip-rule="evenodd" d="M98.14 20.56c-12.18-2.15-27.72-3.44-44.64-3.44S21.04 18.4 8.86 20.56a10.37 10.37 0 0 0-7.4 5.14 10.21 10.21 0 0 0-.8 8.91c4.22 11.53 10.86 25.51 19.32 40.03s17.36 27.21 25.33 36.59A10.41 10.41 0 0 0 53.5 115c3.27 0 6.08-1.3 8.19-3.77 7.97-9.38 16.87-22.07 25.33-36.59 8.46-14.52 15.1-28.5 19.3-40.03a10.2 10.2 0 0 0-.79-8.91 10.37 10.37 0 0 0-7.39-5.14Z" fill="url(#b)"/><path style="mix-blend-mode:screen" fill-rule="evenodd" clip-rule="evenodd" d="M40.96 15.47c17.48-.93 26.1.04 26.12 1.94.02 1.9-8.62 3.22-25.84 4.3-17.23 1.1-33.69 1.25-33.92-.77-.22-2.02 16.16-4.53 33.64-5.46Z" fill="url(#c)"/><path style="mix-blend-mode:multiply" fill-rule="evenodd" clip-rule="evenodd" d="M2.02 20.17C7.75 9.07 21.95 1.5 53.5 1.5c31.55 0 45.74 7.56 51.47 18.64a66.34 66.34 0 0 0-4.08-10.6C95.73-.75 60.35.01 53.5.01c-6.85 0-42.24-.76-47.4 9.55a66.2 66.2 0 0 0-4.08 10.6Z" fill="url(#d)"/><path fill-rule="evenodd" clip-rule="evenodd" d="M15.01 38.51a263.4 263.4 0 0 0 15.31 30.22c5.6 9.6 11.86 19.3 18.75 28.24a5.43 5.43 0 0 0 4.43 2.16c1.8 0 3.33-.75 4.42-2.16a264.58 264.58 0 0 0 18.75-28.24A264.23 264.23 0 0 0 91.98 38.5a5.33 5.33 0 0 0-.31-4.88 5.4 5.4 0 0 0-4.11-2.71 269.1 269.1 0 0 0-34.06-1.97 270 270 0 0 0-34.06 1.97 5.4 5.4 0 0 0-4.1 2.71c-.9 1.54-1.01 3.24-.33 4.88Z" fill="url(#e)"/><path fill-rule="evenodd" clip-rule="evenodd" d="M18.69 37c4.3 10.23 9.49 20.16 15.08 29.75a257.85 257.85 0 0 0 18.46 27.82c.34.44.72.62 1.27.62s.93-.18 1.26-.62a258.8 258.8 0 0 0 18.47-27.82A258.33 258.33 0 0 0 88.31 37c.22-.5.19-.92-.09-1.4-.28-.47-.63-.7-1.17-.77a263.87 263.87 0 0 0-33.55-1.94c-11.18 0-22.45.5-33.55 1.94-.55.07-.9.3-1.17.77-.28.48-.3.9-.1 1.4Z" fill="url(#f)"/><path style="mix-blend-mode:screen" fill-rule="evenodd" clip-rule="evenodd" d="M24.97 45.24c3.12 7.87 6.92 15.75 11.64 22.55 4.05 5.84 7.96 8.27 12.63 7.32 10.99-2.25 25.96-23 22.21-33.1-1.6-4.32-6.33-6.9-14.86-7.12-8.87-.24-18.45-.2-27.28.62-5.59.53-7.2 2.52-4.35 9.73Z" fill="url(#g)"/><path fill-rule="evenodd" clip-rule="evenodd" d="M26.89 38.4c2.47-1.85 19.21-2.16 22.11-1.1 4.06 1.5-12.06 11.57-16.42 10.72-5.66-1.1-7.56-8.23-5.7-9.62Z" fill="#fff"/><path style="mix-blend-mode:multiply" fill-rule="evenodd" clip-rule="evenodd" d="M58.19 78.57C49.6 84 43.94 80.6 38.36 74.41c4.3 6.93 8.9 13.71 13.87 20.16.33.44.71.62 1.26.62.56 0 .94-.18 1.27-.62 6.8-8.8 12.88-18.22 18.46-27.82A258.32 258.32 0 0 0 88.31 37c.21-.5.18-.92-.1-1.4-.27-.47-.62-.7-1.17-.77-2.83-.37-5.67-.67-8.52-.92 3.97 3 4.4 8.37 1.69 15.4-4.28 11.05-14.52 24.53-22.03 29.27Z" fill="url(#h)"/><path style="mix-blend-mode:screen" fill-rule="evenodd" clip-rule="evenodd" d="M46.55 93.62c3.18 5.23 6.92 9.39 11.92 4.18 6.93-7.24 20.42-30.5 23.6-38.69-3.14 5.81-18.32 29.74-24.59 36.82-4.2 4.75-7.81 1.56-10.93-2.3Z" fill="url(#i)"/><path style="mix-blend-mode:multiply" fill-rule="evenodd" clip-rule="evenodd" d="M61.64 104.97a11.64 11.64 0 0 1-8.9 3.77c-3.57 0-6.66-1.3-9-3.77a248.61 248.61 0 0 1-21.66-26.78c7.82 13.04 15.91 24.43 23.23 33.04A10.41 10.41 0 0 0 53.5 115c3.27 0 6.08-1.3 8.19-3.77 7.97-9.38 16.87-22.07 25.33-36.59 7.45-12.79 13.5-25.15 17.7-35.8a272.46 272.46 0 0 1-16 29.54C79.7 82.9 70.2 95.58 61.63 104.97Z" fill="url(#j)"/><defs><radialGradient id="a" cx="0" cy="0" r="1" gradientUnits="userSpaceOnUse" gradientTransform="matrix(107.347 0 0 106.371 31.49 26.54)"><stop stop-color="#FCDA1E"/><stop offset="1" stop-color="#CF3F23"/></radialGradient><radialGradient id="b" cx="0" cy="0" r="1" gradientUnits="userSpaceOnUse" gradientTransform="matrix(124.653 0 0 123.52 1.4 24.34)"><stop stop-color="#FFE873"/><stop offset=".23" stop-color="#FBD561"/><stop offset=".69" stop-color="#F3A635"/><stop offset="1" stop-color="#ED8314"/></radialGradient><radialGradient id="c" cx="0" cy="0" r="1" gradientUnits="userSpaceOnUse" gradientTransform="matrix(124.833 0 0 123.698 17.44 8.13)"><stop stop-color="#8075FF"/><stop offset="1"/></radialGradient><radialGradient id="d" cx="0" cy="0" r="1" gradientUnits="userSpaceOnUse" gradientTransform="matrix(118.178 0 0 117.103 49 93.74)"><stop offset=".51" stop-color="#fff"/><stop offset=".69" stop-color="#E3C1A8"/><stop offset=".84" stop-color="#CF9569"/><stop offset=".94" stop-color="#C37942"/><stop offset="1" stop-color="#BF6F34"/></radialGradient><radialGradient id="f" cx="0" cy="0" r="1" gradientUnits="userSpaceOnUse" gradientTransform="matrix(89.3788 0 0 88.5661 33.15 35.34)"><stop stop-color="#C319FF"/><stop offset=".14" stop-color="#BE18F7"/><stop offset=".36" stop-color="#B117E3"/><stop offset=".62" stop-color="#9C15C2"/><stop offset=".91" stop-color="#801295"/><stop offset="1" stop-color="#761185"/></radialGradient><radialGradient id="g" cx="0" cy="0" r="1" gradientUnits="userSpaceOnUse" gradientTransform="matrix(81.7335 0 0 80.9903 26.78 33.5)"><stop stop-color="#BC37FA"/><stop offset="1"/></radialGradient><radialGradient id="h" cx="0" cy="0" r="1" gradientUnits="userSpaceOnUse" gradientTransform="matrix(123.743 0 0 122.617 8.58 19.1)"><stop offset=".48" stop-color="#fff"/><stop offset=".57" stop-color="#E3CAE7"/><stop offset=".73" stop-color="#B675C1"/><stop offset=".86" stop-color="#9535A5"/><stop offset=".95" stop-color="#800E94"/><stop offset="1" stop-color="#79008E"/></radialGradient><radialGradient id="i" cx="0" cy="0" r="1" gradientUnits="userSpaceOnUse" gradientTransform="matrix(90.3792 0 0 89.5574 61.31 98.05)"><stop stop-color="#FFF380"/><stop offset="1"/></radialGradient><radialGradient id="j" cx="0" cy="0" r="1" gradientUnits="userSpaceOnUse" gradientTransform="matrix(143.383 0 0 142.08 -1.87 2.45)"><stop offset=".51" stop-color="#fff"/><stop offset=".69" stop-color="#E3C1A8"/><stop offset=".84" stop-color="#CF9569"/><stop offset=".94" stop-color="#C37942"/><stop offset="1" stop-color="#BF6F34"/></radialGradient><linearGradient id="e" x1="53.5" y1="99.14" x2="53.5" y2="28.95" gradientUnits="userSpaceOnUse"><stop stop-color="#F0AB16"/><stop offset="1" stop-color="#BD6600"/></linearGradient></defs></svg>