<svg width="667" height="610" viewBox="0 0 667 610" fill="none" xmlns="http://www.w3.org/2000/svg"><circle cx="548" cy="97" r="40" fill="url(#a)"/><circle cx="123" cy="94" r="40" fill="url(#b)"/><circle cx="40" cy="297" r="40" fill="url(#c)"/><circle cx="332" cy="570" r="40" fill="url(#d)"/><circle cx="129" cy="493" r="40" fill="url(#e)"/><circle cx="533" cy="493" r="40" fill="url(#f)"/><circle cx="627" cy="303" r="40" fill="url(#g)"/><path d="m530.06 95.9 18.24 19.17s13.38-14.26 5.25-22.83c-8.14-8.59-23.5 3.66-23.5 3.66Z" fill="url(#h)"/><path style="mix-blend-mode:multiply" opacity=".5" d="M530.06 95.9s15-9.44 21.96-2.25c6.95 7.18-3.72 21.42-3.72 21.42s13.3-14.33 5.25-22.83c-8.08-8.52-23.5 3.66-23.5 3.66Z" fill="url(#i)"/><path d="M534.32 99.56c-.17-3.64 10.34-8.67 15.62-2.05 5.28 6.61-1.16 13.6-2.8 13.7-1.64.1-12.82-11.65-12.82-11.65Z" fill="#FFFFA1" style="mix-blend-mode:soft-light" opacity=".56"/><path d="M535.14 101.24c1.5-3.51 9.58-5.53 12.34-1.19s-2.66 9.73-3.48 9.7c-.81-.04-8.86-8.5-8.86-8.5Z" fill="#FFFFA1" style="mix-blend-mode:soft-light" opacity=".56"/><path d="M550.4 96.88c-3.71.05-2.33 3.78-.05 2.97 2.29-.8 1.43-3 .04-2.97Z" fill="#FFFFB8"/><path d="m323.24 20.16 27.2.6s-1-19.55-13.16-19.82c-12.16-.26-14.04 19.22-14.04 19.22Z" fill="url(#j)"/><path style="mix-blend-mode:multiply" opacity=".5" d="M323.24 20.16s3.7-17.27 13.99-17.14c10.29.13 13.2 17.74 13.2 17.74S349.33 1.21 337.27.94c-12.05-.26-14.04 19.22-14.04 19.22Z" fill="url(#k)"/><path d="M328.99 19.73c-2.82-2.44.95-13.43 9.62-12.51 8.66.92 9.23 10.41 8.14 11.64-1.1 1.24-17.76.87-17.76.87Z" fill="#FFFFA1" style="mix-blend-mode:soft-light" opacity=".56"/><path d="M330.8 20.33c-1.52-3.54 2.74-10.68 7.92-9.58 5.19 1.09 5.3 8.74 4.7 9.3-.62.54-12.62.27-12.62.27Z" fill="#FFFFA1" style="mix-blend-mode:soft-light" opacity=".56"/><path d="M338.45 6.45c-2.6 2.66 1.15 4.31 2.18 2.12 1.03-2.19-1.2-3.13-2.18-2.12Z" fill="#FFFFB8"/><path d="m123.52 111.54 19.12-18.35s-14.8-12.9-23.33-4.69c-8.53 8.2 4.22 23.04 4.22 23.04Z" fill="url(#l)"/><path style="mix-blend-mode:multiply" opacity=".5" d="M123.52 111.54s-9.9-14.55-2.75-21.56c7.16-7.02 21.87 3.2 21.87 3.2s-14.87-12.83-23.33-4.68c-8.45 8.14 4.22 23.04 4.22 23.04Z" fill="url(#m)"/><path d="M127.14 107.28c-3.7.24-9.01-10-2.4-15.34 6.6-5.34 13.85.86 13.98 2.48.13 1.61-11.58 12.86-11.58 12.86Z" fill="#FFFFA1" style="mix-blend-mode:soft-light" opacity=".56"/><path d="M128.83 106.44c-3.6-1.41-5.82-9.3-1.47-12.12 4.35-2.83 9.96 2.41 9.93 3.22-.03.8-8.46 8.9-8.46 8.9Z" fill="#FFFFA1" style="mix-blend-mode:soft-light" opacity=".56"/><path d="M124.08 91.51c.13 3.65 3.9 2.21 3.03-.02-.87-2.24-3.08-1.35-3.03.02Z" fill="#FFFFB8"/><path d="m53.17 310.35-.16-25.5s-19.1.97-19.01 12.36c.1 11.37 19.17 13.14 19.17 13.14Z" fill="url(#n)"/><path style="mix-blend-mode:multiply" opacity=".5" d="M53.17 310.35s-16.96-3.48-17.14-13.1c-.18-9.63 16.98-12.4 16.98-12.4s-19.11 1.07-19.02 12.36c.1 11.27 19.18 13.14 19.18 13.14Z" fill="url(#o)"/><path d="M52.59 304.97c-2.31 2.64-13.16-.9-12.5-9 .64-8.12 9.92-8.68 11.16-7.65 1.23 1.03 1.34 16.65 1.34 16.65Z" fill="#FFFFA1" style="mix-blend-mode:soft-light" opacity=".56"/><path d="M53.13 303.27c-3.42 1.43-10.51-2.56-9.6-7.41.93-4.86 8.42-4.98 8.98-4.41.55.58.62 11.82.62 11.82Z" fill="#FFFFA1" style="mix-blend-mode:soft-light" opacity=".56"/><path d="M39.34 296.1c2.68 2.45 4.19-1.06 2.02-2.03-2.18-.97-3.02 1.12-2.02 2.04Z" fill="#FFFFB8"/><path d="m147.06 495.26-18.28-17.7s-12.26 13.19-4.1 21.07c8.16 7.87 22.38-3.37 22.38-3.37Z" fill="url(#p)"/><path style="mix-blend-mode:multiply" opacity=".5" d="M147.07 495.26s-14.01 8.67-20.98 2.07c-6.98-6.61 2.69-19.77 2.69-19.77s-12.2 13.25-4.1 21.07c8.09 7.8 22.39-3.37 22.39-3.37Z" fill="url(#q)"/><path d="M142.84 491.89c.3 3.35-9.59 7.98-14.92 1.9-5.34-6.1.56-12.56 2.13-12.65 1.58-.1 12.78 10.75 12.78 10.75Z" fill="#FFFFA1" style="mix-blend-mode:soft-light" opacity=".56"/><path d="M141.99 490.34c-1.31 3.24-8.97 5.1-11.8 1.1-2.84-4 2.16-8.99 2.94-8.95.79.04 8.86 7.85 8.86 7.85Z" fill="#FFFFA1" style="mix-blend-mode:soft-light" opacity=".56"/><path d="M127.52 494.37c3.55-.05 2.08-3.49-.08-2.75-2.17.75-1.26 2.76.08 2.75Z" fill="#FFFFB8"/><path d="m345.28 563.9-25.7-.53s1 17.4 12.45 17.63c11.44.24 13.25-17.1 13.25-17.1Z" fill="url(#r)"/><path style="mix-blend-mode:multiply" opacity=".5" d="M345.28 563.9s-3.52 15.37-13.2 15.25c-9.7-.1-12.5-15.78-12.5-15.78s1.1 17.4 12.45 17.63c11.35.23 13.26-17.1 13.26-17.1Z" fill="url(#s)"/><path d="M339.85 564.29c2.66 2.18-.92 11.96-9.08 11.14-8.16-.81-8.72-9.26-7.7-10.36 1.04-1.1 16.78-.78 16.78-.78Z" fill="#FFFFA1" style="mix-blend-mode:soft-light" opacity=".56"/><path d="M338.13 563.75c1.44 3.16-2.58 9.51-7.47 8.54-4.9-.97-5.02-7.79-4.45-8.28.58-.5 11.92-.26 11.92-.26Z" fill="#FFFFA1" style="mix-blend-mode:soft-light" opacity=".56"/><path d="M330.91 576.11c2.46-2.37-1.08-3.84-2.05-1.89-.97 1.95 1.13 2.78 2.05 1.9Z" fill="#FFFFB8"/><path d="m537.65 480.83-19.08 16.93s13.68 11.82 22.18 4.3c8.51-7.53-3.1-21.22-3.1-21.22Z" fill="url(#t)"/><path style="mix-blend-mode:multiply" opacity=".5" d="M537.65 480.83s8.9 13.43 1.76 19.88c-7.13 6.43-20.83-2.95-20.83-2.95s13.74 11.76 22.18 4.3c8.44-7.47-3.1-21.22-3.1-21.22h-.01Z" fill="url(#u)"/><path d="M533.99 484.77c3.56-.22 8.25 9.22 1.7 14.13-6.54 4.9-13.25-.79-13.32-2.27-.07-1.49 11.62-11.86 11.62-11.86Z" fill="#FFFFA1" style="mix-blend-mode:soft-light" opacity=".56"/><path d="M532.33 485.55c3.4 1.3 5.2 8.58.92 11.17-4.27 2.6-9.45-2.22-9.4-2.96.06-.75 8.48-8.21 8.48-8.21Z" fill="#FFFFA1" style="mix-blend-mode:soft-light" opacity=".56"/><path d="M536.3 499.3c.02-3.36-3.65-2.04-2.9.02.74 2.05 2.89 1.24 2.9-.02Z" fill="#FFFFB8"/><path d="m616.6 289.11-1.34 25.47s19.11-.96 19.73-12.31c.62-11.37-18.4-13.16-18.4-13.16Z" fill="url(#v)"/><path style="mix-blend-mode:multiply" opacity=".5" d="M616.6 289.11s16.78 3.5 16.36 13.12c-.42 9.6-17.7 12.35-17.7 12.35s19.12-1.05 19.73-12.31c.61-11.28-18.4-13.16-18.4-13.16Z" fill="url(#w)"/><path d="M616.86 294.5c2.48-2.63 13.12.9 11.97 9.02-1.15 8.09-10.43 8.64-11.61 7.62-1.18-1.03-.36-16.64-.36-16.64Z" fill="#FFFFA1" style="mix-blend-mode:soft-light" opacity=".56"/><path d="M616.22 296.21c3.51-1.42 10.37 2.57 9.15 7.42-1.21 4.84-8.7 4.96-9.22 4.4-.51-.58.07-11.82.07-11.82Z" fill="#FFFFA1" style="mix-blend-mode:soft-light" opacity=".56"/><path d="M629.58 303.37c-2.52-2.44-4.25 1.07-2.14 2.04 2.1.96 3.09-1.12 2.14-2.04Z" fill="#FFFFB8"/><path d="M619.68 301.88C614.85 451.7 486.69 569.5 333.28 569.5c-153.4 0-281.56-117.8-286.4-267.63C41.9 146.82 170.06 17.09 333.29 17.09c163.24 0 291.4 129.73 286.4 284.79Z" fill="#B814FE"/><path d="M616.02 301.88c-4.7 147.94-131.23 264.3-282.74 264.3-151.5 0-278.02-116.36-282.73-264.3C45.68 148.84 172.2 20.85 333.28 20.85c161.09 0 287.6 127.99 282.74 281.03Z" fill="url(#x)"/><path d="M583.78 301.88c-3.7 131.32-115.8 234.97-250.5 234.97-134.69 0-246.8-103.65-250.5-234.97-3.8-135.33 108.3-248.1 250.5-248.1 142.22 0 254.32 112.77 250.5 248.1Z" fill="url(#y)"/><path d="M161.5 471.15s62.06 69.34 171.79 69.34c115.35 0 186.9-84.28 186.9-84.28s-79.73 80.64-186.9 80.64-171.78-65.7-171.78-65.7Z" fill="#B814FE"/><path style="mix-blend-mode:multiply" opacity=".5" d="M65.2 371.94c3.24-16.96 9.5-18.9 20.22-8.66 10.7 10.22 65.83 185.56 245.02 181.57 196.16-4.37 238.1-159 250.92-189.38 12.92-30.6 25.23-2.64 11.88 32.71C580 423.26 513.9 566.1 326.45 566.1 139.01 566.1 65.2 371.94 65.2 371.94Z" fill="url(#z)"/><path d="M340.63 536.68s11.13 3.21 26.65 1.14c15.53-2.07 23.94-8.6 23.94-8.6s-23.25 7.28-50.59 7.46Z" fill="#FF545C"/><path d="M61.04 223.77c14.17-17.68 26.86 0 26.86 0s-17.2 65.07 3.35 134.27c0 0-26.73 15.89-34.4-6.5-7.71-22.51-10.36-109.62 4.19-127.77Z" fill="#FFFF36" style="mix-blend-mode:soft-light" opacity=".5"/><path d="M476.44 53.98s14.04 13.46 26.97 23.3c13.35 10.16 22.2 13.82 22.2 13.82s.31-7.96-49.18-37.12h.01Z" fill="#B814FE"/><path d="M497.65 79.55c-6.9-1.85-4.26 5.73 3.16 11.55 7.41 5.8 10.22 1.5 10.22 1.5s2.08-8.9-13.38-13.05Z" fill="#FF4538"/><path d="M393.6 60.83s45.18 8.1 80.35 31.51c35 23.3 57.9 55.5 57.9 55.5s-43.44-61.4-138.26-87.01ZM109.6 186.33s14.98-41.6 61.45-77.8c46.85-36.5 86.97-43.66 86.97-43.66s-84.4 23.02-148.42 121.46ZM557.7 187.6s40.55 84.84 18.88 165.67c0 0 30.12-80.22-18.88-165.66ZM82.42 311.86s-5.14-50.59 15.84-100.64c0 0-24.37 45.84-15.84 100.64Z" fill="#B814FE"/><path d="M79.4 181.54c-.58 7.87 15.95 6.33 24.27 0C112 175.2 162.69 79.63 275.45 57c0 0 10.6-20.3 4.42-25.2-6.18-4.9-127.26 9.02-200.47 149.73ZM394.14 28.55c-5.86-1.46-5.29 17.2-.16 25.43 5.1 8.22 91.19 24.68 146.24 105.08 4.58 6.7 24.36-.93 24.72-14.36.36-13.48-55.69-87.37-170.8-116.15Z" fill="#fff" style="mix-blend-mode:soft-light" opacity=".5"/><path d="M129.68 115.37c-8.66 13.34 62.65-26.72 88.27-42.9 25.72-16.24 26.37-26.75 26.37-26.75s-78.74 14.3-114.64 69.65ZM413.63 33.66c-15.7-4.02-39.84 10.7 43.74 47.85 51.27 22.79 34.72-10.93 13.94-23.56-20.83-12.67-48.87-22.04-57.67-24.3Z" fill="#fff" style="mix-blend-mode:soft-light" opacity=".5"/><path d="M334.67 534.5c130.77 0 236.16-106 235.41-236.77S462.71 60.95 331.94 60.95c-130.77 0-236.17 106-235.42 236.78.76 130.76 107.38 236.77 238.15 236.77Z" fill="url(#A)"/><path d="M333.28 516.57c121.55 0 220.09-97.98 220.09-218.85 0-120.86-98.54-218.84-220.09-218.84S113.2 176.86 113.2 297.73c0 120.86 98.53 218.84 220.08 218.84Z" fill="url(#B)"/><path style="mix-blend-mode:multiply" opacity=".5" d="M102.08 351.7c2.2-10.12 7.25-12.94 11.12-13.24 3.87-.3 45 194.13 223.86 183.2 186.92-11.43 204.4-147.2 213.68-190.06 9.29-42.85 13.9 2.88 13.9 2.88s-35.86 198.15-231.36 199.35c-181.04 1.1-231.2-182.14-231.2-182.14Z" fill="url(#C)"/><path d="M413.57 76.72c-5.42-.19-17.06 7.25-16.3 9.8.78 2.54 105.57 39.54 137.65 118.93 0 0 8.83 7.4 12.44-3.86 3.6-11.27-51.46-100.95-133.8-124.87Z" fill="#FFE748" style="mix-blend-mode:soft-light"/><path d="M409.2 73.94s71.42 33.16 99.37 65.38c0 0-32.74-43.99-99.37-65.38Z" fill="#FFFF7C"/><path d="M447.54 95.93c-4.2-1.34-3.15 6.54 2.68 10.2 5.83 3.64 10.1 1.84 10.38.82.28-1.02-2.8-7.75-13.06-11.02Z" fill="#FFFF7C"/><path d="M241.43 496.65s10.85-.78 37.97 4.44c27.12 5.23 50.92 15.47 50.92 15.47s-52.7 1.02-88.9-19.91ZM346.5 516.57s24.28-7.18 61.5-19.96c37.22-12.77 51.94-19.9 51.94-19.9s-41.96 35.6-113.43 39.86Z" fill="#FFD831"/><path d="M183.03 137.82s22.7-24.94 51.29-39.66c28.59-14.71 58.8-15.95 58.8-15.95s-50.8 7.81-110.1 55.61ZM370.49 82s59.86 6.24 116.3 58.88c0 0-37.1-51.18-116.3-58.89ZM491 145.07s61.97 55.43 62.37 149.7c0 0 10.12-88.62-62.37-149.7Z" fill="#FFD148"/><path d="M113.2 294.76s-2.72-86.33 62.36-149.7c0 0-68.86 50.2-62.36 149.7Z" fill="#FFC248"/><path style="mix-blend-mode:multiply" d="M115.72 392.42s55.6 133.8 214.73 137.27c140.53 3.06 203.06-105.01 203.06-105.01S471 533.83 333.28 533.83c-137.71 0-197.6-89.8-217.56-141.41Z" fill="url(#D)"/><path d="M191.13 465.58s51.97 56.54 151.23 51.65c99.26-4.87 145.83-65.33 145.83-65.33s-44.36 56.08-144.28 62.25c-98.1 6.06-152.78-48.57-152.78-48.57Z" fill="#FFF431"/><path d="M175.56 120.94s50.16-36.46 100.22-52.35c0 0-45.52 6.33-100.21 52.35Z" fill="#FFFF7C"/><path d="M330.17 17.18S291.1 21.2 280.5 57.41c0 0 40.24-9.2 91.9-2.07 0 0 23.7-27.93 53.14-23.74 0 0-55.06-19.2-95.37-14.42Z" fill="url(#E)"/><path d="M128.23 100.06s-22.72 32.1-3.57 64.9c0 0 20.2-32.93 61.97-63.02 0 0-4.99-39.63 18.9-56.69 0 0-52.3 24.03-77.3 54.81Z" fill="url(#F)"/><path d="M87.74 343.7c-17.4-4.7-27.55-15.26-33.43-25.27a60.9 60.9 0 0 1-7.9-22.5c-4.97-38.75 14.35-91.29 14.35-91.29l-.02.1c-4.29 28.25 25.36 50.6 25.36 50.6-7.4 49.68 1.64 88.35 1.64 88.35Z" fill="url(#G)"/><path d="M197.34 495.37c-22.46 12.13-43.4 5.99-55.08.38-6.05-2.92-9.64-5.7-9.64-5.7-31.52-23.63-56.23-74.33-57-75.92 3.19 4.11 7 7.4 11.11 10.01 18.88 12.05 44.1 10.23 44.1 10.23 31.3 40.16 66.5 61 66.5 61Z" fill="url(#H)"/><path d="M386.06 530.47c-5.14 17.6-17.03 27.12-27.87 32.26-11.46 5.46-21.8 6-21.8 6-40.3 4.78-94.97-13.8-94.97-13.8 5.39.77 10.52.53 15.3-.34 21.45-3.96 36.13-21.02 36.13-21.02 51.68 7.11 93.2-3.09 93.2-3.09v-.01Z" fill="url(#I)"/><path d="M550.43 461.87c-3.46 14.42-12.11 23.97-12.11 23.97-24.6 30.3-75.66 54.06-77.26 54.78a41.07 41.07 0 0 0 8-7.59c14.73-18.3 11.33-45.48 11.33-45.48 41.78-30.06 64.4-62.8 64.4-62.8 8.02 13.75 8.17 26.69 5.64 37.1v.01Z" fill="url(#J)"/><path d="M605.15 380.67c1.42-9.2-.7-17.74-4.22-25.05-7.26-15.15-20.47-25.06-20.47-25.06 7.41-49.66-2.15-88.34-2.15-88.34 21.87 5.9 32.45 21.04 37.48 32.71 3.64 8.43 4.37 15.04 4.37 15.04 4.97 38.75-15 90.7-15 90.7Z" fill="url(#K)"/><path d="M535.72 151.53s36.73-3.86 54.47 19.1c0 0-24.24-50.76-56.26-74.79 0 0-32.77-22.29-66.9-3.87 0 0 37.4 19.4 68.69 59.56Z" fill="url(#L)"/><path style="mix-blend-mode:multiply" opacity=".5" d="m60.76 204.64-.02.1c-.63 2.39-13.35 51.64-6.43 113.7-6.84-11.64-7.9-22.5-7.9-22.5-4.97-38.76 14.35-91.29 14.35-91.29Z" fill="url(#M)"/><path style="mix-blend-mode:multiply" opacity=".5" d="M142.26 495.75c-6.05-2.92-9.64-5.7-9.64-5.7-31.52-23.63-56.23-74.33-57-75.92 3.19 4.11 7 7.4 11.11 10.01 13.69 25.73 31.95 50.39 55.53 71.6Z" fill="url(#N)"/><path style="mix-blend-mode:multiply" opacity=".5" d="M358.2 562.73c-11.47 5.46-21.81 6-21.81 6-40.3 4.78-94.97-13.8-94.97-13.8 5.39.77 10.52.53 15.3-.35 20.05 4.78 41.84 7.75 65.47 8.59 12.52.45 24.52.3 36-.43Z" fill="url(#O)"/><path style="mix-blend-mode:multiply" opacity=".5" d="M550.43 461.87c-3.46 14.42-12.11 23.97-12.11 23.97-24.6 30.3-75.66 54.06-77.26 54.78a41.1 41.1 0 0 0 8-7.59c34.34-18.22 60.88-43.27 81.37-71.16Z" fill="url(#P)"/><path style="mix-blend-mode:multiply" opacity=".5" d="M605.15 380.67c1.42-9.2-.7-17.74-4.22-25.05a429.9 429.9 0 0 0 14.86-80.69c3.64 8.43 4.37 15.04 4.37 15.04 4.97 38.75-15 90.7-15 90.7Z" fill="url(#Q)"/><path d="M447.21 45.72c-8.65 1 3.23 13.58 11.68 10.5 8.45-3.06-1.94-11.63-11.68-10.5Z" fill="#fff"/><path d="M568.6 173.54c-4.62 1.59 1.5 18.78 12.92 20 11.43 1.23 2.7-25.35-12.92-20ZM98.25 381.5c-3.18-.49-3.03 11.1 2.19 17.77 5.21 6.67 9.8 6.13 9.34 5.26L98.26 381.5h-.01ZM544.79 424.76s10.53-4.5 23.94-27.22c13.4-22.72 6.75-40.12 6.75-40.12s-11.8 40.22-30.7 67.34Z" fill="#FFD6DD" style="mix-blend-mode:soft-light"/><path d="M280.26 31.04c-10.34 6 18.6 10.16 26.06 1.3 7.46-8.86-9.03-11.2-26.06-1.3Z" fill="#fff"/><path d="M192 72.54c-.67 4.96 11.84-4.21 12.48-7.67.64-3.45-11.06-2.69-12.47 7.67Z" fill="#FFD6DD" style="mix-blend-mode:soft-light"/><path d="M289.92 536.85s46.23 9.36 95.03-2.99l1.1-3.4s-37.13 10.2-93.2 3.1l-2.93 3.29ZM480.4 487.55v3.67s43.06-28.38 64.39-66.46c0 0-28.67 38.47-64.4 62.8ZM128.08 434.47s29.5 42.67 66.65 62.14l2.6-1.24s-32.05-15.98-66.49-61l-2.76.1Z" fill="#E2C4DD"/><path d="M116.99 132.91c-5.54-2.53-13.12 15.93-7.39 19.63 5.73 3.7 23.57-12.22 7.39-19.63ZM364.19 537.93c-1.23.37 9.8.73 19.57-1.08 9.78-1.81 13.43-5.18 13.43-5.18s-11.68 0-33 6.26ZM478.38 492.1c-.9 3.1 14.82 1.12 18.43-13.22 0 0-16.39 6.21-18.43 13.22Z" fill="#fff"/><defs><linearGradient id="h" x1="539.09" y1="105.48" x2="553.23" y2="91.88" gradientUnits="userSpaceOnUse"><stop stop-color="#FFE39A"/><stop offset=".16" stop-color="#FFE093"/><stop offset=".4" stop-color="#FFD87F"/><stop offset=".68" stop-color="#FFCC60"/><stop offset=".99" stop-color="#FFBB34"/><stop offset="1" stop-color="#FB3"/></linearGradient><linearGradient id="i" x1="539.09" y1="105.48" x2="553.23" y2="91.88" gradientUnits="userSpaceOnUse"><stop stop-color="#fff"/><stop offset=".1" stop-color="#F9F3F5"/><stop offset=".28" stop-color="#ECD4DD"/><stop offset=".52" stop-color="#D6A2B5"/><stop offset=".81" stop-color="#B85D7F"/><stop offset="1" stop-color="#A42D59"/></linearGradient><linearGradient id="j" x1="336.82" y1="20.47" x2="337.25" y2=".95" gradientUnits="userSpaceOnUse"><stop stop-color="#FFE39A"/><stop offset=".16" stop-color="#FFE093"/><stop offset=".4" stop-color="#FFD87F"/><stop offset=".68" stop-color="#FFCC60"/><stop offset=".99" stop-color="#FFBB34"/><stop offset="1" stop-color="#FB3"/></linearGradient><linearGradient id="k" x1="336.82" y1="20.47" x2="337.25" y2=".95" gradientUnits="userSpaceOnUse"><stop stop-color="#fff"/><stop offset=".1" stop-color="#F9F3F5"/><stop offset=".28" stop-color="#ECD4DD"/><stop offset=".52" stop-color="#D6A2B5"/><stop offset=".81" stop-color="#B85D7F"/><stop offset="1" stop-color="#A42D59"/></linearGradient><linearGradient id="l" x1="133.17" y1="102.43" x2="119.66" y2="88.23" gradientUnits="userSpaceOnUse"><stop stop-color="#FFE39A"/><stop offset=".16" stop-color="#FFE093"/><stop offset=".4" stop-color="#FFD87F"/><stop offset=".68" stop-color="#FFCC60"/><stop offset=".99" stop-color="#FFBB34"/><stop offset="1" stop-color="#FB3"/></linearGradient><linearGradient id="m" x1="133.17" y1="102.43" x2="119.66" y2="88.23" gradientUnits="userSpaceOnUse"><stop stop-color="#fff"/><stop offset=".1" stop-color="#F9F3F5"/><stop offset=".28" stop-color="#ECD4DD"/><stop offset=".52" stop-color="#D6A2B5"/><stop offset=".81" stop-color="#B85D7F"/><stop offset="1" stop-color="#A42D59"/></linearGradient><linearGradient id="n" x1="53.67" y1="297.6" x2="34.21" y2="297.17" gradientUnits="userSpaceOnUse"><stop stop-color="#FFE39A"/><stop offset=".16" stop-color="#FFE093"/><stop offset=".4" stop-color="#FFD87F"/><stop offset=".68" stop-color="#FFCC60"/><stop offset=".99" stop-color="#FFBB34"/><stop offset="1" stop-color="#FB3"/></linearGradient><linearGradient id="o" x1="53.67" y1="297.6" x2="34.21" y2="297.17" gradientUnits="userSpaceOnUse"><stop stop-color="#fff"/><stop offset=".1" stop-color="#F9F3F5"/><stop offset=".28" stop-color="#ECD4DD"/><stop offset=".52" stop-color="#D6A2B5"/><stop offset=".81" stop-color="#B85D7F"/><stop offset="1" stop-color="#A42D59"/></linearGradient><linearGradient id="p" x1="138.38" y1="486.04" x2="125.07" y2="498.84" gradientUnits="userSpaceOnUse"><stop stop-color="#FFE39A"/><stop offset=".16" stop-color="#FFE093"/><stop offset=".4" stop-color="#FFD87F"/><stop offset=".68" stop-color="#FFCC60"/><stop offset=".99" stop-color="#FFBB34"/><stop offset="1" stop-color="#FB3"/></linearGradient><linearGradient id="q" x1="138.38" y1="486.04" x2="125.07" y2="498.84" gradientUnits="userSpaceOnUse"><stop stop-color="#fff"/><stop offset=".1" stop-color="#F9F3F5"/><stop offset=".28" stop-color="#ECD4DD"/><stop offset=".52" stop-color="#D6A2B5"/><stop offset=".81" stop-color="#B85D7F"/><stop offset="1" stop-color="#A42D59"/></linearGradient><linearGradient id="r" x1="332.63" y1="563.38" x2="332.24" y2="580.76" gradientUnits="userSpaceOnUse"><stop stop-color="#FFE39A"/><stop offset=".16" stop-color="#FFE093"/><stop offset=".4" stop-color="#FFD87F"/><stop offset=".68" stop-color="#FFCC60"/><stop offset=".99" stop-color="#FFBB34"/><stop offset="1" stop-color="#FB3"/></linearGradient><linearGradient id="s" x1="332.63" y1="563.38" x2="332.24" y2="580.76" gradientUnits="userSpaceOnUse"><stop stop-color="#fff"/><stop offset=".1" stop-color="#F9F3F5"/><stop offset=".28" stop-color="#ECD4DD"/><stop offset=".52" stop-color="#D6A2B5"/><stop offset=".81" stop-color="#B85D7F"/><stop offset="1" stop-color="#A42D59"/></linearGradient><linearGradient id="t" x1="527.85" y1="488.84" x2="540.53" y2="502.18" gradientUnits="userSpaceOnUse"><stop stop-color="#FFE39A"/><stop offset=".16" stop-color="#FFE093"/><stop offset=".4" stop-color="#FFD87F"/><stop offset=".68" stop-color="#FFCC60"/><stop offset=".99" stop-color="#FFBB34"/><stop offset="1" stop-color="#FB3"/></linearGradient><linearGradient id="u" x1="527.85" y1="488.84" x2="540.53" y2="502.18" gradientUnits="userSpaceOnUse"><stop stop-color="#fff"/><stop offset=".1" stop-color="#F9F3F5"/><stop offset=".28" stop-color="#ECD4DD"/><stop offset=".52" stop-color="#D6A2B5"/><stop offset=".81" stop-color="#B85D7F"/><stop offset="1" stop-color="#A42D59"/></linearGradient><linearGradient id="v" x1="615.51" y1="301.61" x2="634.95" y2="302.05" gradientUnits="userSpaceOnUse"><stop stop-color="#FFE39A"/><stop offset=".16" stop-color="#FFE093"/><stop offset=".4" stop-color="#FFD87F"/><stop offset=".68" stop-color="#FFCC60"/><stop offset=".99" stop-color="#FFBB34"/><stop offset="1" stop-color="#FB3"/></linearGradient><linearGradient id="w" x1="615.51" y1="301.61" x2="634.95" y2="302.05" gradientUnits="userSpaceOnUse"><stop stop-color="#fff"/><stop offset=".1" stop-color="#F9F3F5"/><stop offset=".28" stop-color="#ECD4DD"/><stop offset=".52" stop-color="#D6A2B5"/><stop offset=".81" stop-color="#B85D7F"/><stop offset="1" stop-color="#A42D59"/></linearGradient><linearGradient id="y" x1="82.69" y1="295.32" x2="583.88" y2="295.32" gradientUnits="userSpaceOnUse"><stop stop-color="#860039"/><stop offset=".38" stop-color="#83003B"/><stop offset=".66" stop-color="#790043"/><stop offset=".9" stop-color="#690051"/><stop offset="1" stop-color="#610059"/></linearGradient><linearGradient id="z" x1="332.11" y1="566.11" x2="332.11" y2="342.36" gradientUnits="userSpaceOnUse"><stop stop-color="#572D59"/><stop offset=".19" stop-color="#7D5D7F"/><stop offset=".48" stop-color="#B4A2B5"/><stop offset=".72" stop-color="#DCD4DD"/><stop offset=".9" stop-color="#F5F3F5"/><stop offset="1" stop-color="#fff"/></linearGradient><linearGradient id="B" x1="333.28" y1="516.56" x2="333.28" y2="78.88" gradientUnits="userSpaceOnUse"><stop stop-color="#FFC625"/><stop offset=".08" stop-color="#FFB91F"/><stop offset=".22" stop-color="#FF9811"/><stop offset=".36" stop-color="#FF7000"/><stop offset=".61" stop-color="#E35000"/><stop offset="1" stop-color="#B31800"/></linearGradient><linearGradient id="C" x1="333.36" y1="533.83" x2="333.36" y2="313.27" gradientUnits="userSpaceOnUse"><stop stop-color="#A42D59"/><stop offset=".19" stop-color="#B85D7F"/><stop offset=".48" stop-color="#D6A2B5"/><stop offset=".72" stop-color="#ECD4DD"/><stop offset=".9" stop-color="#F9F3F5"/><stop offset="1" stop-color="#fff"/></linearGradient><linearGradient id="D" x1="115.72" y1="463.12" x2="533.52" y2="463.12" gradientUnits="userSpaceOnUse"><stop stop-color="#AE93FF"/><stop offset=".12" stop-color="#AE8BF3"/><stop offset=".34" stop-color="#AF78D4"/><stop offset=".63" stop-color="#B159A2"/><stop offset=".98" stop-color="#B42F5D"/><stop offset="1" stop-color="#B52D59"/></linearGradient><linearGradient id="M" x1="53.46" y1="279.68" x2="40.42" y2="-1360.43" gradientUnits="userSpaceOnUse"><stop stop-color="#83007C"/><stop offset=".14" stop-color="#850281"/><stop offset=".33" stop-color="#8B0A92"/><stop offset=".54" stop-color="#9617AD"/><stop offset=".77" stop-color="#A52AD2"/><stop offset="1" stop-color="#B840FF"/></linearGradient><linearGradient id="N" x1="109.05" y1="468.02" x2="99.63" y2="-716.41" gradientUnits="userSpaceOnUse"><stop stop-color="#83007C"/><stop offset=".14" stop-color="#850281"/><stop offset=".33" stop-color="#8B0A92"/><stop offset=".54" stop-color="#9617AD"/><stop offset=".77" stop-color="#A52AD2"/><stop offset="1" stop-color="#B840FF"/></linearGradient><linearGradient id="O" x1="299.85" y1="564.43" x2="298.08" y2="341.44" gradientUnits="userSpaceOnUse"><stop stop-color="#83007C"/><stop offset=".14" stop-color="#850281"/><stop offset=".33" stop-color="#8B0A92"/><stop offset=".54" stop-color="#9617AD"/><stop offset=".77" stop-color="#A52AD2"/><stop offset="1" stop-color="#B840FF"/></linearGradient><linearGradient id="P" x1="505.85" y1="513.66" x2="496.89" y2="-611.71" gradientUnits="userSpaceOnUse"><stop stop-color="#83007C"/><stop offset=".14" stop-color="#850281"/><stop offset=".33" stop-color="#8B0A92"/><stop offset=".54" stop-color="#9617AD"/><stop offset=".77" stop-color="#A52AD2"/><stop offset="1" stop-color="#B840FF"/></linearGradient><linearGradient id="Q" x1="611.06" y1="344.61" x2="598.94" y2="-1178.86" gradientUnits="userSpaceOnUse"><stop stop-color="#83007C"/><stop offset=".14" stop-color="#850281"/><stop offset=".33" stop-color="#8B0A92"/><stop offset=".54" stop-color="#9617AD"/><stop offset=".77" stop-color="#A52AD2"/><stop offset="1" stop-color="#B840FF"/></linearGradient><radialGradient id="a" cx="0" cy="0" r="1" gradientUnits="userSpaceOnUse" gradientTransform="matrix(0 40 -40 0 548 97)"><stop stop-color="#FFF50A"/><stop offset=".46" stop-color="#FFF50A" stop-opacity=".4"/><stop offset="1" stop-color="#FFF50A" stop-opacity="0"/></radialGradient><radialGradient id="b" cx="0" cy="0" r="1" gradientUnits="userSpaceOnUse" gradientTransform="matrix(0 40 -40 0 123 94)"><stop stop-color="#FFF50A"/><stop offset=".46" stop-color="#FFF50A" stop-opacity=".4"/><stop offset="1" stop-color="#FFF50A" stop-opacity="0"/></radialGradient><radialGradient id="c" cx="0" cy="0" r="1" gradientUnits="userSpaceOnUse" gradientTransform="matrix(0 40 -40 0 40 297)"><stop stop-color="#FFF50A"/><stop offset=".46" stop-color="#FFF50A" stop-opacity=".4"/><stop offset="1" stop-color="#FFF50A" stop-opacity="0"/></radialGradient><radialGradient id="d" cx="0" cy="0" r="1" gradientUnits="userSpaceOnUse" gradientTransform="matrix(0 40 -40 0 332 570)"><stop stop-color="#FFF50A"/><stop offset=".46" stop-color="#FFF50A" stop-opacity=".4"/><stop offset="1" stop-color="#FFF50A" stop-opacity="0"/></radialGradient><radialGradient id="e" cx="0" cy="0" r="1" gradientUnits="userSpaceOnUse" gradientTransform="matrix(0 40 -40 0 129 493)"><stop stop-color="#FFF50A"/><stop offset=".46" stop-color="#FFF50A" stop-opacity=".4"/><stop offset="1" stop-color="#FFF50A" stop-opacity="0"/></radialGradient><radialGradient id="f" cx="0" cy="0" r="1" gradientUnits="userSpaceOnUse" gradientTransform="matrix(0 40 -40 0 533 493)"><stop stop-color="#FFF50A"/><stop offset=".46" stop-color="#FFF50A" stop-opacity=".4"/><stop offset="1" stop-color="#FFF50A" stop-opacity="0"/></radialGradient><radialGradient id="g" cx="0" cy="0" r="1" gradientUnits="userSpaceOnUse" gradientTransform="matrix(0 40 -40 0 627 303)"><stop stop-color="#FFF50A"/><stop offset=".46" stop-color="#FFF50A" stop-opacity=".4"/><stop offset="1" stop-color="#FFF50A" stop-opacity="0"/></radialGradient><radialGradient id="x" cx="0" cy="0" r="1" gradientUnits="userSpaceOnUse" gradientTransform="matrix(277.399 0 0 275.838 338.21 212.7)"><stop offset=".78" stop-color="#E30084"/><stop offset="1" stop-color="#8E0086"/></radialGradient><radialGradient id="A" cx="0" cy="0" r="1" gradientUnits="userSpaceOnUse" gradientTransform="rotate(44.13 -103.66 473.6) scale(334.82 332.896)"><stop stop-color="#FF8B20"/><stop offset=".21" stop-color="#FFA909"/><stop offset=".34" stop-color="#FFB600"/></radialGradient><radialGradient id="E" cx="0" cy="0" r="1" gradientUnits="userSpaceOnUse" gradientTransform="matrix(504.952 0 0 502.109 358.98 86.6)"><stop stop-color="#FFEAFA"/><stop offset=".16" stop-color="#F9E3F7"/><stop offset=".39" stop-color="#E9CFF2"/><stop offset=".66" stop-color="#CFB0E8"/><stop offset=".97" stop-color="#AB84DB"/><stop offset="1" stop-color="#A77FDA"/></radialGradient><radialGradient id="F" cx="0" cy="0" r="1" gradientUnits="userSpaceOnUse" gradientTransform="matrix(504.951 0 0 502.109 358.98 86.6)"><stop stop-color="#FFEAFA"/><stop offset=".16" stop-color="#F9E3F7"/><stop offset=".39" stop-color="#E9CFF2"/><stop offset=".66" stop-color="#CFB0E8"/><stop offset=".97" stop-color="#AB84DB"/><stop offset="1" stop-color="#A77FDA"/></radialGradient><radialGradient id="G" cx="0" cy="0" r="1" gradientUnits="userSpaceOnUse" gradientTransform="matrix(504.951 0 0 502.109 358.98 86.6)"><stop stop-color="#FFEAFA"/><stop offset=".16" stop-color="#F9E3F7"/><stop offset=".39" stop-color="#E9CFF2"/><stop offset=".66" stop-color="#CFB0E8"/><stop offset=".97" stop-color="#AB84DB"/><stop offset="1" stop-color="#A77FDA"/></radialGradient><radialGradient id="H" cx="0" cy="0" r="1" gradientUnits="userSpaceOnUse" gradientTransform="matrix(504.951 0 0 502.109 358.98 86.6)"><stop stop-color="#FFEAFA"/><stop offset=".16" stop-color="#F9E3F7"/><stop offset=".39" stop-color="#E9CFF2"/><stop offset=".66" stop-color="#CFB0E8"/><stop offset=".97" stop-color="#AB84DB"/><stop offset="1" stop-color="#A77FDA"/></radialGradient><radialGradient id="I" cx="0" cy="0" r="1" gradientUnits="userSpaceOnUse" gradientTransform="matrix(504.951 0 0 502.109 358.98 86.6)"><stop stop-color="#FFEAFA"/><stop offset=".16" stop-color="#F9E3F7"/><stop offset=".39" stop-color="#E9CFF2"/><stop offset=".66" stop-color="#CFB0E8"/><stop offset=".97" stop-color="#AB84DB"/><stop offset="1" stop-color="#A77FDA"/></radialGradient><radialGradient id="J" cx="0" cy="0" r="1" gradientUnits="userSpaceOnUse" gradientTransform="matrix(504.952 0 0 502.109 358.98 86.6)"><stop stop-color="#FFEAFA"/><stop offset=".16" stop-color="#F9E3F7"/><stop offset=".39" stop-color="#E9CFF2"/><stop offset=".66" stop-color="#CFB0E8"/><stop offset=".97" stop-color="#AB84DB"/><stop offset="1" stop-color="#A77FDA"/></radialGradient><radialGradient id="K" cx="0" cy="0" r="1" gradientUnits="userSpaceOnUse" gradientTransform="matrix(504.952 0 0 502.109 358.98 86.6)"><stop stop-color="#FFEAFA"/><stop offset=".16" stop-color="#F9E3F7"/><stop offset=".39" stop-color="#E9CFF2"/><stop offset=".66" stop-color="#CFB0E8"/><stop offset=".97" stop-color="#AB84DB"/><stop offset="1" stop-color="#A77FDA"/></radialGradient><radialGradient id="L" cx="0" cy="0" r="1" gradientUnits="userSpaceOnUse" gradientTransform="matrix(504.951 0 0 502.109 358.98 86.6)"><stop stop-color="#FFEAFA"/><stop offset=".16" stop-color="#F9E3F7"/><stop offset=".39" stop-color="#E9CFF2"/><stop offset=".66" stop-color="#CFB0E8"/><stop offset=".97" stop-color="#AB84DB"/><stop offset="1" stop-color="#A77FDA"/></radialGradient></defs></svg>