<svg width="156" height="152" viewBox="0 0 156 152" fill="none" xmlns="http://www.w3.org/2000/svg"><path opacity=".3" d="M154.5 88.14C150.75 123.8 115.06 152 76.52 152 37.98 152 5.25 123.81 1.5 88.14-2.66 48.57 31.39 13.2 78 13.2s80.66 35.37 76.5 74.94Z" fill="#83007C"/><path d="M155.64 77.3c-3.87 36.73-38.47 63.92-77.64 63.92S4.23 114.02.36 77.3C-3.94 36.53 30.62 0 78 0c47.38 0 81.93 36.53 77.64 77.3Z" fill="url(#a)"/><path d="M152.38 77.3c-3.56 35.26-36.73 61.45-74.38 61.45S7.18 112.55 3.62 77.31C-.3 38.33 32.82 3.57 78 3.57c45.18 0 78.31 34.76 74.38 73.74Z" fill="url(#b)"/><path d="M134.79 77.3c-2.1 27.23-27.47 47.87-56.79 47.87S23.31 104.53 21.21 77.3c-2.26-29.4 23.09-55 56.79-55s59.05 25.6 56.79 55Z" fill="url(#c)"/><path d="M130.6 77.3c-1.81 25.29-25.31 44.55-52.6 44.55-27.29 0-50.8-19.26-52.6-44.54C23.48 50.17 46.97 26.65 78 26.65c31.04 0 54.53 23.52 52.6 50.66Z" fill="url(#d)"/><path d="M125.76 77.3c-1.5 23.04-22.84 40.68-47.76 40.68-24.92 0-46.27-17.64-47.76-40.67C28.64 52.74 49.99 31.59 78 31.59c28.01 0 49.36 21.15 47.76 45.72Z" fill="url(#e)"/><path d="M78 3.57c-3.26.07-4.07 12.94-2.9 14.08 1.17 1.13 47.71 7.27 60.64 43.77.8 2.27 14.63-1.93 14.63-1.93S145.7 5.73 78 3.58v-.01Z" fill="#FFE748" style="mix-blend-mode:soft-light"/><path d="M40.14 112.14s17.63 12.03 40.65 9.7c23.17-2.34 36.91-11.26 36.91-11.26s-13.58 14.58-38.43 14.58-39.13-13.02-39.13-13.02Z" fill="#FFE748"/><path d="M33.25 59.48s11-24.88 45.9-24.88 44.18 26.35 44.18 26.35S114.52 31.59 78 31.59c-36.52 0-44.75 27.89-44.75 27.89Z" fill="#FF5E40"/><path d="M80.05 32.01c-1.71.41 10 3.34 13.23 4.25 3.2.92 8.42.85 8.42.85s-7.79-5.2-21.65-5.1Z" fill="#FFC231"/><path style="mix-blend-mode:multiply" opacity=".5" d="M20.07 85.01c-4.1-1.19-11.57 3.67-11.57 7.31-.01 3.6 21.65 50.37 69.8 47.53 48.56-2.87 72.77-42.2 68.25-46.37-4.57-4.22-10.62-7.17-10.62-7.17s-13.78 46.74-66.5 38.98c-42.3-6.23-49.36-40.28-49.36-40.28Z" fill="url(#f)"/><path d="M83.14 3.7s16.46.27 38.54 11.34c0 0-8.06-15.15-38.54-11.34Z" fill="#FFFF7C"/><path d="M97.37 7.9c-5.1-.57 3.64 7.37 7.9 8.45 4.24 1.09 8.56 0 9.1-1.08.52-1.1-4.22-5.95-17-7.37ZM96.27 25.02s2.56-.69 5.8 0c3.23.68 5.93 5 5.93 5s-6.64-3.68-11.72-5h-.01ZM56.15 121.85s3.67 4.39 9.54 5.13c5.86.74 9.37-.96 9.37-.96l-18.91-4.18Z" fill="#FFFF7C"/><path style="mix-blend-mode:multiply" d="M29.57 93.06s15.65 23.18 50.12 21.87c34.59-1.32 48.8-27.04 48.8-27.04s-12.3 32.95-50.56 32.93c-38.26-.03-48.36-27.76-48.36-27.76Z" fill="url(#g)"/><path d="M85.2 37.85c-13.27 1.43-6.9 14.87 8.96 11.48 16-3.42-1-12.35-8.96-11.48Z" fill="#ABB8E1" style="mix-blend-mode:soft-light"/><path d="M34.73 110.6c-2.44-1.74-8.46 8.63-8.3 9.46.17.84 8.91 8.64 16.16 12.06 7.18 3.39 15.26-7.69 13.97-9.83-1.3-2.15-12.93-6.24-21.83-11.7Z" fill="#FFE748" style="mix-blend-mode:soft-light"/><defs><radialGradient id="a" cx="0" cy="0" r="1" gradientUnits="userSpaceOnUse" gradientTransform="matrix(107.237 0 0 106.779 77.16 25.7)"><stop offset=".66" stop-color="#FFE900"/><stop offset=".71" stop-color="#FFDC03"/><stop offset=".81" stop-color="#FFBB0B"/><stop offset=".93" stop-color="#FF8518"/><stop offset="1" stop-color="#FF6520"/></radialGradient><radialGradient id="b" cx="0" cy="0" r="1" gradientUnits="userSpaceOnUse" gradientTransform="matrix(102.669 0 0 102.23 77.2 28.18)"><stop offset=".66" stop-color="#FFB600"/><stop offset=".74" stop-color="#FFA904"/><stop offset=".88" stop-color="#FF8812"/><stop offset="1" stop-color="#FF6520"/></radialGradient><radialGradient id="d" cx="0" cy="0" r="1" gradientUnits="userSpaceOnUse" gradientTransform="matrix(50.3134 0 0 50.0985 78 74.25)"><stop stop-color="#510060"/><stop offset=".34" stop-color="#53005E"/><stop offset=".59" stop-color="#5D005A"/><stop offset=".82" stop-color="#6D0053"/><stop offset="1" stop-color="#81004A"/></radialGradient><radialGradient id="e" cx="0" cy="0" r="1" gradientUnits="userSpaceOnUse" gradientTransform="matrix(55.1188 0 0 54.8834 79.43 48.47)"><stop stop-color="#FF2700"/><stop offset=".29" stop-color="#FD2502"/><stop offset=".5" stop-color="#F7200C"/><stop offset=".69" stop-color="#ED181C"/><stop offset=".86" stop-color="#DE0C32"/><stop offset="1" stop-color="#CF004C"/></radialGradient><linearGradient id="c" x1="78" y1="125.17" x2="78" y2="22.31" gradientUnits="userSpaceOnUse"><stop stop-color="#FFA725"/><stop offset=".11" stop-color="#FA9A1C"/><stop offset=".31" stop-color="#ED7906"/><stop offset=".36" stop-color="#EA7000"/><stop offset=".61" stop-color="#D65000"/><stop offset="1" stop-color="#B31800"/></linearGradient><linearGradient id="f" x1="77.79" y1="139.98" x2="77.79" y2="84.83" gradientUnits="userSpaceOnUse"><stop stop-color="#CA657C"/><stop offset=".13" stop-color="#CB6A80"/><stop offset=".3" stop-color="#CF7B8E"/><stop offset=".49" stop-color="#D696A5"/><stop offset=".7" stop-color="#E0BBC6"/><stop offset=".92" stop-color="#EDEBEE"/><stop offset="1" stop-color="#F2FEFF"/></linearGradient><linearGradient id="g" x1="29.57" y1="104.35" x2="128.49" y2="104.35" gradientUnits="userSpaceOnUse"><stop stop-color="#FF93FF"/><stop offset=".12" stop-color="#FA8BF3"/><stop offset=".34" stop-color="#EF78D4"/><stop offset=".63" stop-color="#DC59A2"/><stop offset=".98" stop-color="#C32F5D"/><stop offset="1" stop-color="#C22D59"/></linearGradient></defs></svg>